<?xml version="1.0" standalone="no"?>
<!DOCTYPE svg PUBLIC "-//W3C//DTD SVG 20010904//EN"
 "http://www.w3.org/TR/2001/REC-SVG-20010904/DTD/svg10.dtd">
<svg version="1.0" xmlns="http://www.w3.org/2000/svg"
 width="864.000000pt" height="864.000000pt" viewBox="0 0 864.000000 864.000000"
 preserveAspectRatio="xMidYMid meet">
<metadata>
Created by potrace 1.14, written by Peter Selinger 2001-2017
</metadata>
<g transform="translate(0.000000,864.000000) scale(0.100000,-0.100000)"
fill="#000000" stroke="none">
<path d="M749 8156 c-2 -2 -22 -6 -44 -9 -152 -22 -331 -116 -454 -239 -73
-72 -153 -190 -181 -266 -11 -32 -24 -64 -27 -72 -3 -8 -7 -18 -8 -22 -2 -5
-3 -9 -5 -10 -1 -2 -3 -10 -5 -18 -1 -8 -7 -33 -11 -55 -11 -49 -12 -4498 -2
-4573 5 -29 12 -61 17 -71 6 -10 12 -28 14 -42 5 -32 63 -158 84 -181 9 -10
13 -18 9 -18 -26 0 180 -214 231 -241 15 -7 30 -17 33 -20 9 -11 120 -68 120
-62 0 3 6 1 13 -4 25 -20 117 -45 217 -59 25 -4 416 -7 870 -8 l825 -1 40 -25
c60 -38 78 -48 105 -62 14 -6 35 -21 48 -32 12 -11 22 -16 22 -12 0 4 15 -4
33 -18 19 -15 37 -26 40 -26 9 0 112 -64 115 -72 2 -5 8 -8 13 -8 5 0 38 -18
74 -40 36 -22 69 -40 74 -40 5 0 11 -3 13 -7 4 -10 57 -42 81 -50 9 -3 17 -9
17 -14 0 -5 5 -9 11 -9 6 0 23 -8 37 -19 40 -28 115 -71 135 -78 9 -3 17 -9
17 -14 0 -5 7 -9 15 -9 8 0 15 -5 15 -12 0 -6 3 -8 7 -5 3 4 13 1 22 -6 9 -7
50 -33 91 -57 41 -25 77 -47 80 -50 3 -3 16 -11 29 -18 13 -8 38 -22 56 -32
18 -10 63 -37 100 -59 37 -23 69 -41 72 -41 2 0 23 -13 46 -29 23 -15 60 -38
82 -50 47 -25 78 -44 85 -52 3 -3 39 -25 80 -48 125 -72 132 -77 217 -130 46
-28 85 -51 88 -51 2 0 28 -15 57 -33 104 -65 237 -86 343 -53 6 2 25 7 43 11
17 4 32 10 32 14 0 3 14 12 31 20 46 20 132 111 158 167 30 62 40 98 47 153 2
24 7 47 10 52 3 5 1 9 -5 9 -6 0 -6 11 -1 30 5 17 5 30 0 30 -5 0 -5 13 0 30
5 17 5 30 0 30 -5 0 -5 13 0 30 5 17 5 32 0 35 -5 3 -5 16 0 30 6 15 6 25 0
25 -5 0 -5 12 0 30 5 17 5 30 0 30 -5 0 -5 13 0 30 5 17 5 30 0 30 -5 0 -5 12
-1 28 5 15 5 37 0 49 -5 13 -4 25 1 28 6 3 6 15 0 30 -6 15 -6 27 0 30 6 3 6
15 0 30 -6 15 -6 27 0 30 6 3 6 15 0 30 -6 15 -6 27 0 30 6 3 6 15 0 30 -6 15
-6 27 0 30 6 3 6 15 0 30 -6 15 -6 27 0 30 5 3 6 15 0 29 -4 12 -5 27 -2 32 5
7 173 10 452 11 402 0 513 3 575 17 92 19 265 90 265 107 0 5 9 9 19 9 11 0
21 3 23 8 2 4 26 25 53 47 62 49 65 52 112 107 60 72 67 81 88 123 11 22 23
43 28 46 9 6 64 157 72 196 3 15 9 46 12 68 10 53 9 4446 0 4510 -10 72 -13
83 -37 155 -70 208 -210 370 -422 488 -32 18 -58 30 -58 27 0 -3 -13 1 -29 10
-16 8 -69 23 -118 34 -87 20 -127 20 -2744 21 -1461 0 -2658 -2 -2660 -4z"/>
<path d="M8108 6455 c-2 -2 -28 -5 -58 -8 -127 -11 -267 -112 -324 -233 -31
-65 -35 -78 -42 -144 -4 -40 -5 -63 -3 -110 0 -14 0 -112 0 -155 0 -11 0 -40
0 -65 0 -54 1 -45 -2 -148 -1 -45 0 -85 3 -87 2 -2 1 -30 -2 -60 -3 -31 -3
-58 0 -60 3 -2 3 -29 0 -60 -3 -31 -3 -58 0 -60 3 -2 3 -29 0 -60 -3 -31 -3
-58 0 -60 3 -2 3 -29 0 -60 -3 -31 -3 -58 0 -60 3 -2 3 -29 0 -60 -3 -31 -3
-58 0 -60 3 -2 3 -29 0 -60 -3 -31 -3 -58 0 -60 3 -2 3 -29 0 -60 -3 -31 -3
-58 0 -60 3 -2 3 -29 0 -60 -3 -31 -3 -58 0 -60 3 -2 3 -29 0 -60 -3 -31 -3
-58 0 -60 3 -2 3 -29 0 -60 -3 -31 -3 -58 0 -60 3 -2 3 -29 0 -60 -3 -31 -3
-58 0 -60 3 -2 3 -29 0 -60 -3 -31 -3 -58 0 -60 3 -2 3 -29 0 -60 -3 -31 -3
-58 0 -60 3 -2 3 -29 0 -60 -3 -31 -3 -58 0 -60 3 -2 3 -29 0 -60 -3 -30 -4
-57 -2 -60 3 -3 4 -102 1 -310 0 -5 0 -39 0 -75 0 -36 0 -72 0 -80 -1 -8 -1
-44 0 -80 0 -36 0 -72 0 -80 0 -8 0 -44 0 -80 0 -36 0 -72 0 -80 -1 -8 -1 -44
0 -80 0 -36 0 -72 0 -80 0 -8 0 -44 0 -80 0 -36 0 -72 0 -80 -1 -8 -1 -44 0
-80 0 -36 0 -72 0 -80 0 -8 0 -44 0 -80 0 -36 0 -72 0 -80 -1 -8 -1 -44 0 -80
0 -36 0 -72 0 -80 0 -8 0 -44 0 -80 0 -36 0 -72 0 -80 -1 -8 -1 -44 0 -80 0
-36 0 -72 0 -80 0 -8 0 -44 0 -80 0 -36 0 -72 0 -80 0 -17 0 -136 0 -165 2
-79 0 -130 -5 -134 -3 -4 -306 -6 -672 -7 -660 -1 -668 -1 -731 -23 -252 -87
-366 -354 -252 -593 47 -98 133 -173 246 -214 l66 -24 742 4 c728 3 770 4 795
20 6 4 12 5 12 2 0 -8 131 39 186 67 83 42 142 85 215 158 143 143 223 311
246 514 10 84 9 4766 -1 4845 -21 180 -173 329 -366 359 -27 4 -51 7 -52 6z"/>
</g>
</svg>
